<svg width="24" height="25" viewBox="0 0 24 25" fill="none" xmlns="http://www.w3.org/2000/svg">
<path d="M22.2813 14.8302C22.5312 13.8955 24 13.0883 24 12.0747C24 11.0611 22.5312 10.2539 22.2816 9.31924C22.0232 8.35204 22.8837 6.92031 22.3939 6.07337C21.8968 5.21444 20.2219 5.24724 19.5248 4.54991C18.8277 3.85284 18.8605 2.17791 18.0013 1.68084C17.1544 1.19097 15.7227 2.05151 14.7555 1.79311C13.8208 1.54351 13.0136 0.074707 12 0.074707C10.9864 0.074707 10.1792 1.54351 9.24453 1.79311C8.27733 2.05151 6.8456 1.19097 5.99867 1.68084C5.13973 2.17791 5.17253 3.85284 4.4752 4.54991C3.77813 5.24697 2.1032 5.21417 1.60613 6.07337C1.11627 6.92031 1.9768 8.35204 1.7184 9.31924C1.4688 10.2539 0 11.0611 0 12.0747C0 13.0883 1.4688 13.8955 1.7184 14.8302C1.9768 15.7974 1.11627 17.2291 1.60613 18.076C2.1032 18.935 3.77813 18.9022 4.4752 19.5995C5.17227 20.2966 5.13947 21.9715 5.99867 22.4686C6.8456 22.9584 8.27733 22.0979 9.24453 22.3563C10.1792 22.6059 10.9864 24.0747 12 24.0747C13.0136 24.0747 13.8208 22.6059 14.7555 22.3563C15.7227 22.0979 17.1544 22.9584 18.0013 22.4686C18.8603 21.9715 18.8275 20.2966 19.5248 19.5995C20.2219 18.9024 21.8968 18.9352 22.3939 18.076C22.8837 17.2291 22.0229 15.7974 22.2813 14.8302ZM10.4491 16.1576L7.04213 12.7294L8.6968 11.0643L10.4973 12.8752L15.3515 7.99177L16.9579 9.60804L10.4491 16.1576Z" fill="#60CC53"/>
</svg>
