<svg width="363" height="236" viewBox="0 0 363 236" fill="none" xmlns="http://www.w3.org/2000/svg">
<path d="M180.739 236C231.957 236 273.478 194.586 273.478 143.5C273.478 92.4137 231.957 51 180.739 51C129.521 51 88 92.4137 88 143.5C88 194.586 129.521 236 180.739 236Z" fill="#EB4242"/>
<path d="M176.609 165.093C174.429 165.093 172.65 163.347 172.609 161.168L171.485 101.075C171.443 98.8368 173.246 97 175.484 97H186.516C188.754 97 190.557 98.8368 190.515 101.075L189.391 161.168C189.35 163.347 187.571 165.093 185.391 165.093H176.609ZM181 198C177.825 198 175.187 197.017 173.085 195.051C171.028 193.04 170 190.494 170 187.411C170 184.283 171.028 181.736 173.085 179.77C175.187 177.76 177.825 176.754 181 176.754C184.22 176.754 186.858 177.76 188.915 179.77C190.972 181.736 192 184.283 192 187.411C192 190.494 190.972 193.04 188.915 195.051C186.858 197.017 184.22 198 181 198Z" fill="white"/>
<g opacity="0.8">
<path d="M34.6323 53.8504L18.5446 28.9207L25.962 24.3368L41.0641 49.8755L34.6323 53.8504ZM45.3847 64.0579C44.1571 64.8165 42.9119 65.0827 41.649 64.8563C40.3932 64.6027 39.4123 63.9047 38.7062 62.7622C37.9899 61.6032 37.8043 60.4136 38.1494 59.1935C38.5015 57.9462 39.2914 56.9432 40.519 56.1846C41.7639 55.4152 43.0142 55.1574 44.27 55.411C45.5156 55.648 46.4965 56.346 47.2128 57.5051C47.9189 58.6476 48.1045 59.8371 47.7697 61.0738C47.4246 62.2938 46.6296 63.2885 45.3847 64.0579Z" fill="#FFB682"/>
<path d="M339.119 101.529L352.58 69.304L361.972 73.4441L347.263 105.119L339.119 101.529ZM336.384 118.764C334.83 118.079 333.742 117.048 333.119 115.672C332.528 114.285 332.551 112.868 333.189 111.422C333.836 109.954 334.866 108.981 336.28 108.503C337.725 108.013 339.224 108.11 340.779 108.796C342.355 109.491 343.438 110.532 344.03 111.919C344.63 113.285 344.607 114.702 343.96 116.17C343.322 117.616 342.292 118.589 340.869 119.089C339.455 119.567 337.96 119.459 336.384 118.764Z" fill="#FFB682"/>
<path d="M106.082 50.9219C104.848 50.9219 103.909 49.8151 104.109 48.5974L109.193 17.6755C109.352 16.7091 110.187 16 111.167 16H111.871C113.105 16 114.045 17.1067 113.844 18.3245L108.76 49.2464C108.601 50.2127 107.766 50.9219 106.786 50.9219H106.082ZM90.3609 41.9219C89.125 41.9219 88.185 40.8121 88.3881 39.5931L88.5183 38.8118C88.6791 37.8475 89.5135 37.1406 90.4911 37.1406H113.307C114.547 37.1406 115.488 38.2569 115.279 39.4788L115.144 40.2601C114.98 41.2201 114.147 41.9219 113.173 41.9219H90.3609ZM93.8229 50.9219C92.5893 50.9219 91.6498 49.816 91.8492 48.5987L96.9129 17.6768C97.0713 16.7099 97.9068 16 98.8866 16H99.5912C100.825 16 101.764 17.1058 101.565 18.3232L96.5012 49.2451C96.3428 50.212 95.5073 50.9219 94.5274 50.9219H93.8229ZM92.386 29.8047C91.1469 29.8047 90.206 28.6895 90.4146 27.4681L90.5519 26.6634C90.716 25.7026 91.5487 25 92.5234 25H115.324C116.556 25 117.494 26.1021 117.299 27.3179L117.169 28.1225C117.013 29.0919 116.177 29.8047 115.195 29.8047H92.386Z" fill="#E87073"/>
<path d="M236.37 28.7453C235.653 29.1588 234.737 28.8314 234.445 28.0576L228.274 11.6934C228.043 11.0794 228.29 10.388 228.858 10.0599C229.574 9.64641 230.49 9.97385 230.782 10.7476L236.953 27.1118C237.185 27.7258 236.938 28.4172 236.37 28.7453ZM226.053 28.7684C225.322 29.1901 224.388 28.8551 224.092 28.0653C223.858 27.4405 224.11 26.738 224.688 26.4044L235.576 20.118C236.309 19.695 237.246 20.0336 237.539 20.8273C237.769 21.4509 237.517 22.1496 236.941 22.482L226.053 28.7684ZM230.308 32.2449C229.592 32.6583 228.676 32.3313 228.384 31.5579L222.203 15.1998C221.971 14.5856 222.218 13.8936 222.787 13.5653C223.503 13.1519 224.418 13.4789 224.711 14.2523L230.892 30.6104C231.124 31.2246 230.877 31.9166 230.308 32.2449ZM223.603 22.1947C222.867 22.6196 221.926 22.2799 221.631 21.483C221.399 20.8561 221.652 20.1533 222.231 19.8191L233.104 13.542C233.835 13.1198 234.77 13.4524 235.071 14.2416C235.311 14.8708 235.058 15.581 234.475 15.9176L223.603 22.1947Z" fill="#E87073"/>
<path d="M75.1117 178.458C74.3955 178.872 73.4795 178.544 73.1877 177.77L67.0164 161.406C66.7848 160.792 67.032 160.101 67.6003 159.773C68.3165 159.359 69.2326 159.687 69.5244 160.461L75.6956 176.825C75.9272 177.439 75.68 178.13 75.1117 178.458ZM64.795 178.481C64.0646 178.903 63.1304 178.568 62.8345 177.778C62.6004 177.153 62.8524 176.451 63.4302 176.117L74.3186 169.831C75.0513 169.408 75.9884 169.746 76.2814 170.54C76.5117 171.164 76.2592 171.863 75.6835 172.195L64.795 178.481ZM69.0503 181.958C68.3343 182.371 67.4185 182.044 67.1263 181.271L60.9451 164.913C60.713 164.298 60.9601 163.607 61.5288 163.278C62.2447 162.865 63.1605 163.192 63.4527 163.965L69.6339 180.323C69.866 180.938 69.6189 181.629 69.0503 181.958ZM62.3451 171.908C61.6092 172.332 60.668 171.993 60.3731 171.196C60.141 170.569 60.3947 169.866 60.9735 169.532L71.8457 163.255C72.577 162.833 73.5125 163.165 73.8132 163.954C74.0529 164.584 73.8004 165.294 73.2173 165.631L62.3451 171.908Z" fill="#E87073"/>
<path d="M289.781 125.537C292.421 125.537 294.561 123.402 294.561 120.768C294.561 118.135 292.421 116 289.781 116C287.14 116 285 118.135 285 120.768C285 123.402 287.14 125.537 289.781 125.537Z" fill="#FFF0DE"/>
<path d="M190.781 28.5369C193.421 28.5369 195.561 26.402 195.561 23.7685C195.561 21.1349 193.421 19 190.781 19C188.14 19 186 21.1349 186 23.7685C186 26.402 188.14 28.5369 190.781 28.5369Z" fill="#FFF0DE"/>
<path d="M28.7808 197.537C31.4211 197.537 33.5615 195.402 33.5615 192.768C33.5615 190.135 31.4211 188 28.7808 188C26.1405 188 24 190.135 24 192.768C24 195.402 26.1405 197.537 28.7808 197.537Z" fill="#FFF0DE"/>
</g>
<path d="M14.5159 130.642C13.4378 128.775 14.0776 126.387 15.9451 125.308L60.2779 99.7129C62.1453 98.6347 64.5333 99.2745 65.6114 101.142C66.6896 103.009 66.0498 105.397 64.1823 106.476L19.8495 132.071C17.9821 133.149 15.5941 132.509 14.5159 130.642ZM24.0566 96.2298C22.952 94.3167 23.6348 91.8546 25.548 90.75C27.4611 89.6454 29.9347 90.2852 31.0393 92.1984L56.0393 135.5C57.1439 137.413 56.4611 139.875 54.548 140.979C52.6348 142.084 50.1612 141.444 49.0566 139.531L24.0566 96.2298Z" fill="#ED8D8F"/>
<path d="M270.723 23.7057C271.967 21.9449 274.404 21.5266 276.165 22.7714L317.965 52.3227C319.726 53.5675 320.144 56.004 318.899 57.7648C317.654 59.5256 315.218 59.9438 313.457 58.699L271.657 29.1478C269.896 27.903 269.478 25.4665 270.723 23.7057ZM305.969 17.9685C307.244 16.1646 309.766 15.7543 311.57 17.0295C313.374 18.3048 313.828 20.8191 312.553 22.623L283.689 63.4505C282.414 65.2544 279.892 65.6648 278.088 64.3895C276.284 63.1142 275.83 60.5999 277.105 58.796L305.969 17.9685Z" fill="#ED8D8F"/>
<path d="M296.432 147.661C296.661 146.293 297.954 145.37 299.322 145.598L331.789 151.017C333.157 151.246 334.081 152.539 333.852 153.907C333.624 155.275 332.33 156.198 330.963 155.97L298.495 150.551C297.128 150.323 296.204 149.029 296.432 147.661ZM315.232 134.501C315.468 133.089 316.804 132.135 318.216 132.371C319.628 132.607 320.582 133.943 320.346 135.355L315.059 167.027C314.824 168.439 313.488 169.393 312.076 169.157C310.663 168.921 309.71 167.586 309.945 166.173L315.232 134.501Z" fill="#ED8D8F"/>
</svg>
