<svg width="150" height="150" viewBox="0 0 150 150" fill="none" xmlns="http://www.w3.org/2000/svg">
<circle cx="75" cy="75.0001" r="75" transform="rotate(-180 75 75.0001)" fill="white"/>
<circle cx="75" cy="75.0001" r="75" transform="rotate(-180 75 75.0001)" fill="url(#paint0_linear_5373_508)"/>
<path d="M104.626 71.9274C104.574 71.706 104.468 71.5008 104.317 71.33C104.166 71.1591 103.975 71.0279 103.76 70.948L82.619 63.0853L87.9487 36.6453C88.0068 36.3516 87.9671 36.0471 87.8354 35.7777C87.7038 35.5084 87.4874 35.2888 87.219 35.1522C86.9505 35.0155 86.6445 34.9692 86.3472 35.0202C86.0498 35.0712 85.7773 35.2167 85.5706 35.4348L46.6322 76.8174C46.4745 76.9821 46.3603 77.1828 46.2997 77.4018C46.239 77.6208 46.2338 77.8512 46.2845 78.0727C46.3363 78.294 46.4425 78.4993 46.5935 78.6701C46.7445 78.841 46.9358 78.9722 47.1502 79.0521L68.2917 86.9148L62.9724 113.355C62.9143 113.648 62.954 113.953 63.0856 114.222C63.2173 114.492 63.4336 114.711 63.7021 114.848C63.9706 114.985 64.2766 115.031 64.5739 114.98C64.8713 114.929 65.1438 114.783 65.3505 114.565L104.289 73.1827C104.445 73.017 104.557 72.8158 104.616 72.5969C104.675 72.3779 104.678 72.148 104.626 71.9274ZM66.6577 109.141L71.2608 86.3113C71.3255 85.9901 71.2729 85.6566 71.1123 85.3703C70.9518 85.0841 70.6939 84.8639 70.3846 84.7491L50.081 77.1933L84.2634 40.8594L79.6603 63.6888C79.5956 64.01 79.6482 64.3435 79.8087 64.6297C79.9693 64.9159 80.2272 65.1362 80.5364 65.251L100.84 72.8068L66.6577 109.141Z" fill="#5BDE84" stroke="#5BDE84"/>
<defs>
<linearGradient id="paint0_linear_5373_508" x1="75" y1="-16.0394" x2="75" y2="255.376" gradientUnits="userSpaceOnUse">
<stop stop-color="#101010"/>
<stop offset="1" stop-color="white"/>
</linearGradient>
</defs>
</svg>
