<svg width="13" height="13" viewBox="0 0 13 13" fill="none" xmlns="http://www.w3.org/2000/svg">
    <path d="M3.52988 12.1386L3.41105 4.11267L0.914683 4.14962L1.03351 12.1756L3.52988 12.1386ZM2.13355 3.05764C2.93883 3.04571 3.57312 2.36511 3.5612 1.55983C3.54967 0.78139 2.89591 0.146703 2.09063 0.158625C1.31219 0.17015 0.677506 0.823912 0.689031 1.60235C0.700953 2.40763 1.35511 3.06916 2.13355 3.05764ZM12.8443 12.0007L12.8711 12.0003L12.806 7.59813C12.7742 5.45072 12.2664 3.79362 9.74315 3.83098C8.53523 3.84886 7.73988 4.53185 7.40007 5.1544L7.37322 5.1548L7.35693 4.05425L4.96793 4.08962L5.08675 12.1156L7.58312 12.0786L7.52431 8.10591C7.50881 7.05904 7.68201 6.06308 8.97045 6.044C10.2589 6.02493 10.3032 7.20561 10.3171 8.1451L10.3748 12.0373L12.8443 12.0007Z" fill="#A1A1A1"/>
</svg>
