<svg width="44" height="40" viewBox="0 0 44 40" fill="none" xmlns="http://www.w3.org/2000/svg">
<path d="M5.89334 31.2427V32.7101H1.46742V34.8994H5.89334V36.355H1.46742V38.5443H5.89334V39.9998H0V31.2427H5.89334ZM8.53232 31.2427H9.99974V38.5443H14.4257V39.9998H8.53232V31.2427ZM19.6326 31.2427C20.248 31.2427 20.816 31.361 21.3486 31.5859C21.8811 31.8107 22.3545 32.1302 22.7568 32.5326L21.7154 33.5621C21.1355 32.9941 20.4373 32.7101 19.6326 32.7101C19.2184 32.7101 18.8398 32.7811 18.4847 32.9349C18.1297 33.0888 17.8102 33.29 17.5498 33.5621C17.2777 33.8225 17.0646 34.1302 16.9108 34.4852C16.757 34.8402 16.6741 35.2189 16.6741 35.6213C16.6741 36.0236 16.757 36.4023 16.9108 36.7573C17.0646 37.1123 17.2777 37.42 17.538 37.6922C17.8102 37.9526 18.1179 38.1656 18.4729 38.3194C18.8398 38.4614 19.2184 38.5443 19.6326 38.5443C20.4373 38.5443 21.1237 38.2602 21.7154 37.6922L22.7568 38.7218C22.3545 39.1241 21.8811 39.4318 21.3486 39.6567C20.816 39.8933 20.248 39.9998 19.6326 39.9998C19.0173 39.9998 18.4492 39.8933 17.9167 39.6567C17.3723 39.42 16.9108 39.1123 16.5084 38.7218C16.0943 38.3194 15.7747 37.8579 15.5499 37.3254C15.3132 36.7928 15.1949 36.2248 15.1949 35.6213C15.1949 35.0296 15.3132 34.4734 15.5499 33.9408C15.7747 33.4083 16.0943 32.9349 16.5084 32.5326C16.9108 32.1421 17.3723 31.8225 17.9167 31.5859C18.4492 31.361 19.0173 31.2427 19.6326 31.2427ZM28.4726 31.2427C29.7034 31.2427 30.7448 31.6687 31.5968 32.5326C32.4725 33.3846 32.9104 34.426 32.9104 35.6213C32.9104 36.8402 32.4725 37.8816 31.5968 38.7218C30.7448 39.5738 29.7034 39.9998 28.4726 39.9998C27.2537 39.9998 26.2123 39.5738 25.3485 38.7218C24.4846 37.8697 24.0467 36.8402 24.0467 35.6213C24.0467 34.426 24.4846 33.3846 25.3485 32.5326C26.2005 31.6687 27.2419 31.2427 28.4726 31.2427ZM28.4726 32.7101C27.6679 32.7101 26.9697 32.9941 26.378 33.5621C25.81 34.142 25.526 34.8284 25.526 35.6213C25.526 36.426 25.81 37.1123 26.378 37.6922C26.9697 38.2602 27.6679 38.5443 28.4726 38.5443C29.2774 38.5443 29.9756 38.2602 30.5554 37.6922C31.1235 37.1123 31.4193 36.426 31.4193 35.6213C31.4193 34.8284 31.1235 34.142 30.5554 33.5621C29.9756 32.9941 29.2774 32.7101 28.4726 32.7101ZM35.8689 34.7692V39.9998H34.4015V31.2427L38.8156 35.6213L43.2533 31.2427V39.9998H41.7622V34.7692L38.8156 37.6922L35.8689 34.7692Z" fill="#005ABB"/>
<path fillRule="evenodd" clipRule="evenodd" d="M24.4262 0.0126872C24.8523 0.0600233 24.7576 0.273036 24.6038 0.46238L24.6156 0.533384C25.6096 0.604388 26.9114 0.450546 27.3137 0.912072C27.5031 1.12508 27.2191 1.78779 27.0061 2.07181C27.0179 1.9653 26.9706 1.74045 26.5682 1.74045C25.2901 1.74045 24.7103 2.50966 24.8049 3.6694L26.1185 9.32606L23.87 11.5508L21.6334 13.7756L17.1602 9.32606C17.1602 5.48 19.6335 -0.306831 24.4262 0.0126872Z" fill="#005ABB"/>
<path fillRule="evenodd" clipRule="evenodd" d="M21.6326 21.1362L28.0348 27.5029H15.2422L21.6326 21.1362Z" fill="#005ABB"/>
<path fillRule="evenodd" clipRule="evenodd" d="M43.2536 17.4559V17.4914V17.5151C43.2299 18.1541 42.6974 18.663 42.0583 18.6748H42.0465C40.4016 18.6748 37.3721 18.6748 35.3129 18.6748V21.3848H41.0879V21.373H42.011H42.0465C42.7092 21.373 43.2417 21.9055 43.2536 22.5682V22.5919V22.6037V22.6274C43.2417 23.2783 42.721 23.799 42.0583 23.8108H42.0228H35.3129H28.035L21.6328 17.4559L28.035 11.1011H35.3129H42.0228H42.0583C42.721 11.1129 43.2417 11.6336 43.2536 12.2845V12.32V12.3436C43.2417 13.0064 42.7092 13.5389 42.0465 13.5389H42.011H41.0879V13.527H35.3129V16.237C37.3721 16.237 40.4016 16.237 42.0465 16.237H42.0583C42.6974 16.2489 43.2299 16.7577 43.2536 17.3968V17.4204V17.4323V17.4559Z" fill="#005ABB"/>
<path fillRule="evenodd" clipRule="evenodd" d="M0.0117188 17.4559V17.4914L0.0235528 17.5151C0.0472208 18.1541 0.579751 18.663 1.21879 18.6748C2.87555 18.6748 5.90506 18.6748 7.95234 18.6748V21.3848H2.18918V21.373H1.26612H1.23062C0.567917 21.373 0.0353868 21.9055 0.0117188 22.5682V22.5919V22.6037V22.6274C0.0353868 23.2783 0.556083 23.799 1.20695 23.8108H1.25429H7.95234H15.2421L21.6325 17.4559L15.2421 11.1011H7.95234H1.25429H1.20695C0.556083 11.1129 0.0353868 11.6336 0.0117188 12.2845V12.32V12.3436C0.0353868 13.0064 0.567917 13.5389 1.23062 13.5389H1.26612H2.18918V13.527H7.95234V16.237C5.90506 16.237 2.87555 16.237 1.21879 16.237C0.579751 16.2489 0.0472208 16.7577 0.0235528 17.3968L0.0117188 17.4204V17.4323V17.4559Z" fill="#005ABB"/>
<path d="M41.7515 8.04787H42.0118C42.2249 8.04787 42.3314 7.96503 42.3314 7.79936C42.3314 7.71652 42.2959 7.65735 42.2485 7.62185C42.1894 7.58634 42.1184 7.57451 42.0118 7.57451H41.7515V8.04787ZM41.5977 8.78158V7.44434H42.0355C42.1775 7.44434 42.284 7.47984 42.355 7.53901C42.4379 7.59818 42.4734 7.68102 42.4734 7.79936C42.4734 7.88219 42.4497 7.96503 42.4024 8.01237C42.355 8.07154 42.2959 8.11887 42.213 8.14254L42.4852 8.78158H42.3314L42.0592 8.16621H41.7515V8.78158H41.5977Z" fill="#005ABB"/>
<path fillRule="evenodd" clipRule="evenodd" d="M41.9522 6.80566C42.686 6.80566 43.2658 7.39736 43.2658 8.11924C43.2658 8.84111 42.686 9.43282 41.9522 9.43282C41.2304 9.43282 40.6387 8.84111 40.6387 8.11924C40.6387 7.39736 41.2304 6.80566 41.9522 6.80566ZM41.9522 7.01868C42.5676 7.01868 43.0528 7.5157 43.0528 8.11924C43.0528 8.72277 42.5676 9.2198 41.9522 9.2198C41.3487 9.2198 40.8635 8.72277 40.8635 8.11924C40.8635 7.5157 41.3487 7.01868 41.9522 7.01868Z" fill="#005ABB"/>
</svg>
