<svg width="405" height="236" viewBox="0 0 405 236" fill="none" xmlns="http://www.w3.org/2000/svg">
<path d="M202.739 236C253.957 236 295.478 194.586 295.478 143.5C295.478 92.4137 253.957 51 202.739 51C151.521 51 110 92.4137 110 143.5C110 194.586 151.521 236 202.739 236Z" fill="#5BDE84"/>
<path fill-rule="evenodd" clip-rule="evenodd" d="M241.649 109.717C240.439 108.511 238.625 108.511 237.617 109.717L194.675 152.348C193.667 153.554 191.852 153.554 190.643 152.348L171.893 133.245C171.148 132.501 170.173 132.216 169.299 132.389C168.184 132.609 167.438 133.626 166.593 134.386L159.595 140.685C158.991 141.288 158.789 141.891 158.789 142.696C158.789 143.5 159.192 144.304 159.595 144.707L178.546 164.614C179.756 165.821 181.571 167.63 182.579 168.636L190.643 176.88C191.852 178.087 193.667 178.087 194.675 176.88L249.915 121.984C251.125 120.777 251.125 118.967 249.915 117.962L241.649 109.717Z" fill="white"/>
<path d="M5.13617 187.147C7.77651 187.147 9.91697 185.012 9.91697 182.379C9.91697 179.745 7.77651 177.61 5.13617 177.61C2.49583 177.61 0.355469 179.745 0.355469 182.379C0.355469 185.012 2.49583 187.147 5.13617 187.147Z" fill="#E87073"/>
<path d="M399.632 187.147C402.273 187.147 404.413 185.012 404.413 182.379C404.413 179.745 402.273 177.61 399.632 177.61C396.992 177.61 394.852 179.745 394.852 182.379C394.852 185.012 396.992 187.147 399.632 187.147Z" fill="#44D5A7"/>
<path d="M43.3218 93.5872C45.9622 93.5872 48.1026 91.4523 48.1026 88.8188C48.1026 86.1852 45.9622 84.0503 43.3218 84.0503C40.6815 84.0503 38.541 86.1852 38.541 88.8188C38.541 91.4523 40.6815 93.5872 43.3218 93.5872Z" fill="#44D5A7"/>
<path d="M352.752 93.5872C355.392 93.5872 357.532 91.4523 357.532 88.8188C357.532 86.1852 355.392 84.0503 352.752 84.0503C350.111 84.0503 347.971 86.1852 347.971 88.8188C347.971 91.4523 350.111 93.5872 352.752 93.5872Z" fill="#DEF0FF"/>
<path d="M275.781 71.5369C278.421 71.5369 280.561 69.402 280.561 66.7684C280.561 64.1349 278.421 62 275.781 62C273.14 62 271 64.1349 271 66.7684C271 69.402 273.14 71.5369 275.781 71.5369Z" fill="#277EE0"/>
<path d="M299.504 30.2813L304.944 33.241C306.098 33.8988 306.593 35.3786 305.933 36.5296C305.768 36.8585 305.439 37.3518 304.944 37.5162L299.504 40.4759C299.174 40.6404 298.68 40.9692 298.515 41.4625L295.547 46.8887C294.888 48.0397 293.404 48.533 292.25 47.8752C291.921 47.7108 291.426 47.382 291.261 46.8887L288.294 41.4625C288.129 41.1336 287.799 40.6404 287.305 40.4759L281.865 37.5162C280.711 36.8585 280.216 35.3786 280.875 34.2276C281.04 33.8988 281.37 33.4055 281.865 33.241L287.305 30.2813C287.634 30.1169 288.129 29.788 288.294 29.2947L291.261 23.8686C291.921 22.7176 293.404 22.2243 294.558 22.882C294.888 23.0464 295.383 23.3753 295.547 23.8686L298.515 29.2947C298.844 29.788 299.174 30.1169 299.504 30.2813Z" fill="#DEF0FF"/>
<path d="M313.681 170.047L316.978 171.855C317.637 172.184 317.967 173.171 317.637 173.828C317.472 173.993 317.308 174.322 316.978 174.486L313.681 176.295C313.516 176.459 313.186 176.624 313.021 176.953L311.208 180.241C310.878 180.899 309.889 181.228 309.23 180.899C309.065 180.734 308.735 180.57 308.57 180.241L306.757 176.953C306.592 176.788 306.427 176.459 306.098 176.295L302.801 174.486C302.141 174.157 301.811 173.171 302.141 172.513C302.306 172.349 302.471 172.02 302.801 171.855L306.098 170.047C306.262 169.882 306.592 169.718 306.757 169.389L308.57 166.1C308.9 165.443 309.889 165.114 310.549 165.442C310.713 165.607 311.043 165.771 311.208 166.1L313.021 169.389C313.186 169.553 313.351 169.882 313.681 170.047Z" fill="#DEF0FF"/>
<path d="M137.288 11.0435L113.549 22.7179L110.746 32.9126L135.144 18.7716L137.288 11.0435Z" fill="#277EE0"/>
<path d="M316.648 134.859L342.531 129.269L347.641 120.061L320.44 127.953L316.648 134.859Z" fill="#E87073"/>
<path d="M199.501 35.2766L197.839 38.832C192.855 36.5389 186.584 36.9181 178.326 39.735C175.457 40.6349 172.82 42.0007 170.393 43.6695C170.765 43.9497 171.137 44.2299 171.487 44.3471C175.374 47.1259 176.763 52.248 175.053 56.6408C174.538 57.7097 173.837 58.6385 172.95 59.4272C170.078 61.4904 166.349 61.0154 163.86 58.7056C161.719 56.513 160.793 53.486 161.358 50.4164C161.595 48.5557 162.181 46.8123 163.303 45.3262C162.137 45.3232 160.972 45.3201 159.829 45.48C157.544 45.7998 155.514 46.7484 153.902 48.303L154.275 48.5832C159.282 51.0391 160.6 56.8358 160.055 61.2316C159.961 61.7432 159.889 62.4177 159.446 62.8121C158.745 63.7409 157.648 64.2266 156.483 64.2236C154.128 64.0546 151.986 63.0253 150.427 61.4159C148.962 59.2949 148.082 56.5938 148.04 53.9413C147.948 53.2896 148.02 52.6151 148.091 51.9406C145.921 53.075 144.006 54.8382 143.162 57.116C141.266 61.3688 142.002 66.5822 142.622 70.9811L138.705 71.5293C138.038 66.8046 137.187 60.7765 139.435 55.4777C140.817 52.2939 143.433 49.6019 146.746 48.3076C147.539 48.0305 148.495 47.7305 149.311 47.6163C151.509 44.3183 155.01 42.0008 159.114 41.5927C161.399 41.273 163.893 41.2562 166.13 41.7739C169.259 39.1763 172.969 37.1618 176.958 35.9391C186.498 32.7765 193.632 32.609 199.501 35.2766ZM165.223 53.0322C165.384 54.1727 165.848 55.1045 166.639 55.9907C167.616 57.0169 169.317 57.2773 170.531 56.4429C170.975 56.0485 171.255 55.677 171.513 55.1425C172.45 52.3531 171.501 49.1632 169.08 47.3421C168.521 46.9219 167.963 46.5016 167.264 46.2672C166.119 47.5903 165.347 49.1937 165.087 50.8914C165.202 51.706 165.131 52.3805 165.223 53.0322ZM156.28 60.4307C156.519 57.4068 155.804 53.5195 152.753 51.9527C152.567 51.8127 152.404 51.8355 152.217 51.6954C152.006 52.5557 151.935 53.2302 152.027 53.8819C151.953 55.7197 152.369 57.489 153.415 59.004C154.183 59.7273 155.255 60.2419 156.28 60.4307Z" fill="#44D5A7"/>
<path d="M67.9264 147.344L71.5348 137.537C72.4013 135.423 74.7343 134.266 76.8537 135.132C77.5524 135.367 78.2972 135.927 78.7156 136.533L84.8992 144.969C85.3176 145.575 86.0623 146.135 86.7611 146.369L96.5901 149.977C98.7094 150.843 99.8703 153.172 99.0038 155.286C98.7694 155.984 98.2086 156.726 97.6018 157.144L89.1524 163.309C88.5456 163.726 87.9848 164.469 87.7503 165.166L84.142 174.972C83.2755 177.086 80.9424 178.243 78.8231 177.377C78.1243 177.143 77.3795 176.583 76.9612 175.977L70.7776 167.541C70.3592 166.935 69.6144 166.374 68.9156 166.14L59.0867 162.532C56.9673 161.666 55.8064 159.337 56.6729 157.223C56.9073 156.526 57.4682 155.783 58.075 155.366L66.5244 149.201C67.1082 148.621 67.692 148.041 67.9264 147.344Z" fill="#DEF0FF"/>
<path d="M221.339 15.4564C222.987 4.60404 209.964 0 209.964 0L207.326 6.90603C215.074 8.87918 215.899 19.4027 215.899 19.4027L221.339 15.4564Z" fill="#E87073"/>
</svg>
