<svg width="5" height="10" viewBox="0 0 5 10" fill="none" xmlns="http://www.w3.org/2000/svg">
<path fill-rule="evenodd" clip-rule="evenodd" d="M0.0918084 1.02882C0.120837 0.999718 0.155322 0.976629 0.193287 0.960875C0.231253 0.945121 0.271954 0.937012 0.313058 0.937012C0.354163 0.937012 0.394864 0.945121 0.432829 0.960875C0.470795 0.976629 0.50528 0.999718 0.534308 1.02882L4.28431 4.77882C4.31341 4.80785 4.3365 4.84233 4.35225 4.8803C4.36801 4.91827 4.37612 4.95897 4.37612 5.00007C4.37612 5.04118 4.36801 5.08188 4.35225 5.11984C4.3365 5.15781 4.31341 5.19229 4.28431 5.22132L0.534308 8.97132C0.475629 9.03 0.396043 9.06297 0.313058 9.06297C0.230074 9.06297 0.150488 9.03 0.0918084 8.97132C0.0331293 8.91264 0.000163615 8.83306 0.000163615 8.75007C0.000163615 8.66709 0.0331293 8.5875 0.0918084 8.52882L3.62118 5.00007L0.0918084 1.47132C0.0627064 1.44229 0.039617 1.40781 0.023863 1.36984C0.00810898 1.33188 0 1.29117 0 1.25007C0 1.20897 0.00810898 1.16827 0.023863 1.1303C0.039617 1.09233 0.0627064 1.05785 0.0918084 1.02882Z" fill="#2C2A25"/>
</svg>
