<svg width="16" height="16" viewBox="0 0 16 16" fill="none" xmlns="http://www.w3.org/2000/svg">
<path d="M8.00065 2.66797C8.57065 2.66797 9.15532 2.68264 9.72198 2.70664L10.3913 2.73864L11.032 2.77664L11.632 2.8173L12.18 2.85997C12.7747 2.90549 13.3343 3.15927 13.7603 3.57666C14.1864 3.99406 14.4516 4.54833 14.5093 5.14197L14.536 5.4253L14.586 6.03197C14.6327 6.66064 14.6673 7.34597 14.6673 8.0013C14.6673 8.65664 14.6327 9.34197 14.586 9.97064L14.536 10.5773C14.5273 10.6746 14.5187 10.7686 14.5093 10.8606C14.4516 11.4544 14.1863 12.0087 13.7601 12.4261C13.3339 12.8436 12.7741 13.0973 12.1793 13.1426L11.6327 13.1846L11.0327 13.226L10.3913 13.264L9.72198 13.296C9.14854 13.3209 8.57464 13.3338 8.00065 13.3346C7.42667 13.3338 6.85276 13.3209 6.27932 13.296L5.60998 13.264L4.96932 13.226L4.36932 13.1846L3.82132 13.1426C3.22662 13.0971 2.66702 12.8433 2.24097 12.4259C1.81491 12.0085 1.5497 11.4543 1.49198 10.8606L1.46532 10.5773L1.41532 9.97064C1.36434 9.31539 1.33721 8.65852 1.33398 8.0013C1.33398 7.34597 1.36865 6.66064 1.41532 6.03197L1.46532 5.4253C1.47398 5.32797 1.48265 5.23397 1.49198 5.14197C1.54968 4.54843 1.8148 3.99425 2.24071 3.57686C2.66663 3.15948 3.22607 2.90564 3.82065 2.85997L4.36798 2.8173L4.96798 2.77664L5.60932 2.73864L6.27865 2.70664C6.85232 2.68172 7.42644 2.66883 8.00065 2.66797ZM8.00065 4.0013C7.45065 4.0013 6.88465 4.01597 6.33398 4.03864L5.68198 4.06997L5.05598 4.10664L4.46798 4.14664L3.92932 4.18864C3.6462 4.20872 3.37935 4.3284 3.17605 4.52645C2.97275 4.72451 2.84613 4.98814 2.81865 5.27064C2.74065 6.07664 2.66732 7.07997 2.66732 8.0013C2.66732 8.92264 2.74065 9.92597 2.81865 10.732C2.87532 11.3133 3.33665 11.7653 3.92932 11.814L4.46798 11.8553L5.05598 11.8953L5.68198 11.9326L6.33398 11.964C6.88465 11.9866 7.45065 12.0013 8.00065 12.0013C8.55065 12.0013 9.11665 11.9866 9.66732 11.964L10.3193 11.9326L10.9453 11.896L11.5333 11.856L12.072 11.814C12.3551 11.7939 12.622 11.6742 12.8253 11.4762C13.0286 11.2781 13.1552 11.0145 13.1827 10.732C13.2607 9.92597 13.334 8.92264 13.334 8.0013C13.334 7.07997 13.2607 6.07664 13.1827 5.27064C13.1552 4.98814 13.0286 4.72451 12.8253 4.52645C12.622 4.3284 12.3551 4.20872 12.072 4.18864L11.5333 4.1473L10.9453 4.1073L10.3193 4.06997L9.66732 4.03864C9.11208 4.01475 8.5564 4.0023 8.00065 4.0013ZM6.66732 6.38464C6.66727 6.31948 6.68315 6.2553 6.71356 6.19767C6.74397 6.14005 6.788 6.09072 6.84182 6.05399C6.89564 6.01726 6.95761 5.99423 7.02236 5.98691C7.0871 5.97958 7.15266 5.98819 7.21332 6.01197L7.26732 6.03864L10.0673 7.65464C10.1231 7.68681 10.1702 7.73196 10.2048 7.78626C10.2394 7.84056 10.2604 7.9024 10.2659 7.96653C10.2715 8.03067 10.2615 8.09519 10.2368 8.15464C10.2121 8.21408 10.1734 8.26668 10.124 8.30797L10.0673 8.34797L7.26732 9.96464C7.21089 9.99731 7.14734 10.0157 7.08218 10.0182C7.01703 10.0207 6.95225 10.0072 6.89349 9.97896C6.83473 9.95069 6.78377 9.90849 6.74505 9.85604C6.70633 9.80358 6.68101 9.74245 6.67132 9.67797L6.66732 9.61797V6.38464Z" fill="#A1A1A1"/>
</svg>
